<?xml version="1.0" encoding="UTF-8"?>
<svg id="Layer_1" data-name="Layer 1" xmlns="http://www.w3.org/2000/svg" viewBox="0 0 730 730">
  <defs>
    <style>
      .cls-1 {
        fill: #ffffff;
        stroke: #000;
        stroke-miterlimit: 10;
      }
    </style>
  </defs>
  <path class="cls-1" d="m368.5,68.25c269.21,0,335.79,216.8,349.41,279.47.27,1.26,2.14.97,2.04-.31C694.92,26.57,389.81,12.6,369.56,12.02c-.58-.02-1.06.45-1.06,1.03v702.9c0,.58-.46,1.04-1.04,1.03-19.82-.3-316.33-10.32-350.56-342.93-.13-1.22,1.61-1.61,2.01-.44,16.83,49.74,109.47,286.2,349.59,286.2"/>
  <rect class="cls-1" x="364.5" y=".5" width="7" height="729"/>
  <path class="cls-1" d="m661.7,360.58c0,269.21-216.8,335.79-279.47,349.41-1.26.27-.97,2.14.31,2.04,320.84-25.03,334.81-330.14,335.39-350.39.02-.58-.45-1.06-1.03-1.06H14c-.58,0-1.04-.46-1.03-1.04.3-19.82,10.32-316.33,342.93-350.56,1.22-.13,1.61,1.61.44,2.01C306.61,27.81,70.15,120.46,70.15,360.58"/>
  <rect class="cls-1" x="361.5" y="-4.5" width="7" height="729" transform="translate(725 -5) rotate(90)"/>
</svg>